<?xml version="1.0" encoding="utf-8"?>
<svg version="1.1" xmlns:xlink="http://www.w3.org/1999/xlink" width="270px" height="270px" xmlns="http://www.w3.org/2000/svg">
  <g transform="matrix(1 0 0 1 -50 -140 )">
    <path d="M 50 140  L 320 140  L 320 410  L 50 410  L 50 140  " fill-rule="nonzero" fill="#cccccc" stroke="none" />
    <path d="M 69 159  L 301 159  L 301 391  L 69 391  L 69 159  " fill-rule="nonzero" fill="#ffffff" stroke="none" />
    <path d="M 210.65 221  C 199.31 221  190.4 212.09  190.4 200.75  C 190.4 189.41  199.31 180.5  210.65 180.5  C 221.99 180.5  230.9 189.41  230.9 200.75  C 230.9 212.09  221.99 221  210.65 221  " fill-rule="nonzero" fill="#cccccc" stroke="none" />
    <path d="M 76 384  L 76 264.1  L 130.5 209.6  L 206.8 253.2  L 250.4 242.3  L 294 253.2  L 294 384  L 76 384  " fill-rule="nonzero" fill="#169bd5" stroke="none" />
  </g>
</svg>