<?xml version="1.0" encoding="utf-8"?>
<svg version="1.1" xmlns:xlink="http://www.w3.org/1999/xlink" width="12px" height="12px" viewBox="750 406  12 12" xmlns="http://www.w3.org/2000/svg">
  <path d="M 756 406  C 759.36 406  762 408.64  762 412  C 762 415.36  759.36 418  756 418  C 752.64 418  750 415.36  750 412  C 750 408.64  752.64 406  756 406  Z " fill-rule="nonzero" fill="#ffffff" stroke="none" fill-opacity="0" />
  <path d="M 756 406.5  C 759.08 406.5  761.5 408.92  761.5 412  C 761.5 415.08  759.08 417.5  756 417.5  C 752.92 417.5  750.5 415.08  750.5 412  C 750.5 408.92  752.92 406.5  756 406.5  Z " stroke-width="1" stroke="#797979" fill="none" />
  <path d="M 756 415  C 754.32 415  753 413.68  753 412  C 753 410.32  754.32 409  756 409  C 757.68 409  759 410.32  759 412  C 759 413.68  757.68 415  756 415  " fill-rule="nonzero" fill="#797979" stroke="none" />
</svg>