<?xml version="1.0" encoding="utf-8"?>
<svg version="1.1" xmlns:xlink="http://www.w3.org/1999/xlink" width="12px" height="12px" viewBox="1070 404  12 12" xmlns="http://www.w3.org/2000/svg">
  <path d="M 1076 404  C 1079.36 404  1082 406.64  1082 410  C 1082 413.36  1079.36 416  1076 416  C 1072.64 416  1070 413.36  1070 410  C 1070 406.64  1072.64 404  1076 404  Z " fill-rule="nonzero" fill="#ffffff" stroke="none" fill-opacity="0" />
  <path d="M 1076 404.5  C 1079.08 404.5  1081.5 406.92  1081.5 410  C 1081.5 413.08  1079.08 415.5  1076 415.5  C 1072.92 415.5  1070.5 413.08  1070.5 410  C 1070.5 406.92  1072.92 404.5  1076 404.5  Z " stroke-width="1" stroke="#797979" fill="none" />
  <path d="M 1076 413  C 1074.32 413  1073 411.68  1073 410  C 1073 408.32  1074.32 407  1076 407  C 1077.68 407  1079 408.32  1079 410  C 1079 411.68  1077.68 413  1076 413  " fill-rule="nonzero" fill="#797979" stroke="none" />
</svg>