<?xml version="1.0" encoding="utf-8"?>
<svg version="1.1" xmlns:xlink="http://www.w3.org/1999/xlink" width="12px" height="12px" viewBox="304 485  12 12" xmlns="http://www.w3.org/2000/svg">
  <path d="M 310 485  C 313.36 485  316 487.64  316 491  C 316 494.36  313.36 497  310 497  C 306.64 497  304 494.36  304 491  C 304 487.64  306.64 485  310 485  Z " fill-rule="nonzero" fill="#ffffff" stroke="none" fill-opacity="0" />
  <path d="M 310 485.5  C 313.08 485.5  315.5 487.92  315.5 491  C 315.5 494.08  313.08 496.5  310 496.5  C 306.92 496.5  304.5 494.08  304.5 491  C 304.5 487.92  306.92 485.5  310 485.5  Z " stroke-width="1" stroke="#797979" fill="none" />
  <path d="M 310 494  C 308.32 494  307 492.68  307 491  C 307 489.32  308.32 488  310 488  C 311.68 488  313 489.32  313 491  C 313 492.68  311.68 494  310 494  " fill-rule="nonzero" fill="#797979" stroke="none" />
</svg>