<?xml version="1.0" encoding="utf-8"?>
<svg version="1.1" xmlns:xlink="http://www.w3.org/1999/xlink" width="12px" height="12px" viewBox="178 485  12 12" xmlns="http://www.w3.org/2000/svg">
  <path d="M 184 485  C 187.36 485  190 487.64  190 491  C 190 494.36  187.36 497  184 497  C 180.64 497  178 494.36  178 491  C 178 487.64  180.64 485  184 485  Z " fill-rule="nonzero" fill="#ffffff" stroke="none" fill-opacity="0" />
  <path d="M 184 485.5  C 187.08 485.5  189.5 487.92  189.5 491  C 189.5 494.08  187.08 496.5  184 496.5  C 180.92 496.5  178.5 494.08  178.5 491  C 178.5 487.92  180.92 485.5  184 485.5  Z " stroke-width="1" stroke="#797979" fill="none" />
  <path d="M 184 494  C 182.32 494  181 492.68  181 491  C 181 489.32  182.32 488  184 488  C 185.68 488  187 489.32  187 491  C 187 492.68  185.68 494  184 494  " fill-rule="nonzero" fill="#797979" stroke="none" />
</svg>