<?xml version="1.0" encoding="utf-8"?>
<svg version="1.1" xmlns:xlink="http://www.w3.org/1999/xlink" width="20px" height="20px" xmlns="http://www.w3.org/2000/svg">
  <g transform="matrix(1 0 0 1 -699 -770 )">
    <path d="M 709 771  C 714.04 771  718 774.96  718 780  C 718 785.04  714.04 789  709 789  C 703.96 789  700 785.04  700 780  C 700 774.96  703.96 771  709 771  Z " fill-rule="nonzero" fill="#ffffff" stroke="none" fill-opacity="0" />
    <path d="M 709 771  C 714.04 771  718 774.96  718 780  C 718 785.04  714.04 789  709 789  C 703.96 789  700 785.04  700 780  C 700 774.96  703.96 771  709 771  Z " stroke-width="2" stroke="#ffffff" fill="none" />
  </g>
</svg>