<?xml version="1.0" encoding="utf-8"?>
<svg version="1.1" xmlns:xlink="http://www.w3.org/1999/xlink" width="90px" height="90px" xmlns="http://www.w3.org/2000/svg">
  <g>
    <path d="M 0 0  L 90 0  L 90 90  L 0 90  L 0 0  " fill-rule="nonzero" fill="#cccccc" stroke="none" />
    <path d="M 6 6  L 84 6  L 84 84  L 6 84  L 6 6  " fill-rule="nonzero" fill="#ffffff" stroke="none" />
    <path d="M 53.55 27  C 49.77 27  46.8 24.03  46.8 20.25  C 46.8 16.47  49.77 13.5  53.55 13.5  C 57.33 13.5  60.3 16.47  60.3 20.25  C 60.3 24.03  57.33 27  53.55 27  " fill-rule="nonzero" fill="#cccccc" stroke="none" />
    <path d="M 9 82  L 9 41.85  L 27.25 23.6  L 52.8 38.2  L 67.4 34.55  L 82 38.2  L 82 82  L 9 82  " fill-rule="nonzero" fill="#169bd5" stroke="none" />
  </g>
</svg>