<?xml version="1.0" encoding="utf-8"?>
<svg version="1.1" xmlns:xlink="http://www.w3.org/1999/xlink" width="136px" height="136px" xmlns="http://www.w3.org/2000/svg">
  <g transform="matrix(1 0 0 1 -86 -305 )">
    <path d="M 154 306  C 191.52 306  221 335.48  221 373  C 221 410.52  191.52 440  154 440  C 116.48 440  87 410.52  87 373  C 87 335.48  116.48 306  154 306  Z " fill-rule="nonzero" fill="#000000" stroke="none" fill-opacity="0.807843137254902" />
    <path d="M 154 306  C 191.52 306  221 335.48  221 373  C 221 410.52  191.52 440  154 440  C 116.48 440  87 410.52  87 373  C 87 335.48  116.48 306  154 306  Z " stroke-width="2" stroke="#ffffff" fill="none" />
  </g>
</svg>