<?xml version="1.0" encoding="utf-8"?>
<svg version="1.1" xmlns:xlink="http://www.w3.org/1999/xlink" width="170px" height="170px" xmlns="http://www.w3.org/2000/svg">
  <g>
    <path d="M 0 0  L 170 0  L 170 170  L 0 170  L 0 0  " fill-rule="nonzero" fill="#cccccc" stroke="none" />
    <path d="M 12 12  L 158 12  L 158 158  L 12 158  L 12 12  " fill-rule="nonzero" fill="#ffffff" stroke="none" />
    <path d="M 101.15 51  C 94.01 51  88.4 45.39  88.4 38.25  C 88.4 31.11  94.01 25.5  101.15 25.5  C 108.29 25.5  113.9 31.11  113.9 38.25  C 113.9 45.39  108.29 51  101.15 51  " fill-rule="nonzero" fill="#cccccc" stroke="none" />
    <path d="M 17 154  L 17 78.65  L 51.25 44.4  L 99.2 71.8  L 126.6 64.95  L 154 71.8  L 154 154  L 17 154  " fill-rule="nonzero" fill="#169bd5" stroke="none" />
  </g>
</svg>